# xmcd
#
# Track frame offsets:
#  150
#  77201
#  107162
#  140786
#  155385
#  182008
#  203219
#  218187
#  238887
#  253148
#
# Disc length: 3862 seconds
#
# Revision: 0
# Processed by: cddbd v1.5.1PL2 Copyright (c) Steve Scherf et al.
# Submitted via: Collectorz.com_Music_Collector 6.9
#
DISCID=950f140a
DTITLE=Todd Snider - Mystic Theater, Petaluma, Ca - 30 June 2003 - Disc 2
DYEAR=2003
DGENRE=Alt Country
TTITLE0=Moondawg Tavern
TTITLE1=Doublewide Blues
TTITLE2=Can't Complain
TTITLE3=Fish And Whistle
TTITLE4=Sideshow Blues
TTITLE5=Long Year
TTITLE6=Beer Run
TTITLE7=Allright Guy
TTITLE8=Comes A Time
TTITLE9=Broke
EXTD=
EXTT0=
EXTT1=
EXTT2=
EXTT3=
EXTT4=
EXTT5=
EXTT6=
EXTT7=
EXTT8=
EXTT9=
PLAYORDER=
